<?xml version="1.0" standalone="no"?>
<!DOCTYPE svg PUBLIC "-//W3C//DTD SVG 1.1//EN" "http://www.w3.org/Graphics/SVG/1.1/DTD/svg11.dtd" >
<svg xmlns="http://www.w3.org/2000/svg">
<metadata></metadata>
<defs>
<font id="avantgardgothef-dembolaltMd" horiz-adv-x="1589" >
<font-face units-per-em="2048" ascent="1638" descent="-410" />
<missing-glyph horiz-adv-x="309" />
<glyph horiz-adv-x="0" />
<glyph horiz-adv-x="682" />
<glyph unicode=" "  horiz-adv-x="309" />
<glyph unicode="&#x09;" horiz-adv-x="309" />
<glyph unicode="&#xa0;" horiz-adv-x="309" />
<glyph unicode="$" horiz-adv-x="1484" d="M35 397h250q12 -86 60.5 -131.5t123.5 -40.5q71 5 118.5 54t47.5 118t-46.5 118t-150.5 89q-116 42 -163.5 70.5t-90.5 79.5q-96 113 -96 250q0 160 109 275.5t260 115.5q86 0 152 -23.5t128 -75.5q111 99 250 99q100 0 185 -43t141 -121q37 -52 52.5 -102.5t20.5 -127.5 h-253q-12 71 -50 108t-96 34q-55 -3 -91.5 -44t-33.5 -95q3 -32 22 -62.5t48 -50.5q55 -29 72 -35l30 -12l33 -13l29 -12q303 -129 321 -401q7 -121 -49 -224t-159.5 -163t-229.5 -60q-119 0 -258 80q-116 -80 -252 -80q-105 0 -199 46.5t-157 129.5q-44 59 -61 112.5 t-17 137.5zM342 1004q0 -57 37 -95t123 -67q78 -28 112 -43t80 -41q-49 57 -69.5 110.5t-20.5 124.5q0 45 2 90q-48 36 -78 48.5t-65 9.5q-57 -4 -89 -41t-32 -96zM797 672q51 -76 72.5 -139.5t21.5 -135.5q0 -59 -19 -139q59 -33 103 -33q86 0 140 53.5t48 131.5 q-6 87 -88 139q-54 32 -88 43l-80 29q-49 16 -110 51z" />
<glyph unicode="1" horiz-adv-x="696" d="M14 700l404 666h223v-1366h-246v891l-180 -311z" />
<glyph unicode="A" horiz-adv-x="1284" d="M4 0l942 1366h213v-1366h-246v362h-372l-248 -362h-289zM717 614h196v285z" />
<glyph unicode="C" horiz-adv-x="1806" d="M63 684q0 274 179 477q95 108 231 172t270 64q153 0 271.5 -42.5t238.5 -140.5l-145 -208q-104 78 -176 107.5t-158 29.5q-189 0 -323 -134.5t-134 -324.5q0 -156 88.5 -278.5t241.5 -176.5l813 1137h221v-1366h-254v465h-325l-160 -223q101 20 184 155h267 q-76 -213 -247 -325q-156 -102 -360 -102q-20 0 -41 1q-186 9 -343 107.5t-248 259t-91 346.5zM1268 696h159v224z" />
<glyph unicode="E" horiz-adv-x="1665" d="M125 0v1366h659v-248h-405v-305h405v-233l545 786h211v-1366h-252v362h-368l-76 -114h135v-248h-854zM379 248h174l221 317h-395v-317zM1092 610h196v305z" />
<glyph unicode="F" d="M125 0v1366h668v-248h-414v-420h391l463 668h231v-1366h-254v451h-321l-314 -451h-450zM379 131l219 320h-219v-320zM1051 698h161v236z" />
<glyph unicode="G" horiz-adv-x="1839" d="M63 682q0 138 53.5 267t151.5 227q100 101 236 160t270 59q260 0 475 -191l-145 -205q-148 133 -307 142q-11 1 -21 1q-110 0 -212 -58q-112 -62 -179.5 -170.5t-67.5 -229.5q0 -176 97 -298.5t266 -162.5l164 248h-238v240h402l440 655h266v-1366h-254v471 q-41 -122 -135 -233q-101 -125 -248 -196t-303 -71q-146 0 -277.5 55.5t-226.5 150.5t-151 227t-56 278zM987 254q72 43 117.5 90.5t87.5 126.5h-59zM1292 711h168v250z" />
<glyph unicode="H" horiz-adv-x="1601" d="M125 0v1366h254v-569h409v321h-237v248h489v-1366h-252v545h-409v-545h-254zM1108 0v1366h473v-248h-219v-1118h-254z" />
<glyph unicode="K" d="M125 0v1366h254v-549l379 549h297l-467 -670l104 -137l559 807h213v-1366h-245v403h-345l-30 -43l270 -360h-307l-113 145l-100 -145h-469zM379 106l166 240l-166 221v-461zM1044 649h175v250z" />
<glyph unicode="L" horiz-adv-x="1464" d="M125 0v1366h252v-1085l749 1085h213v-1366h-254v383h-360l-111 -158h238v-225h-727zM883 614h202v295z" />
<glyph unicode="M" horiz-adv-x="2129" d="M4 0l940 1366h230v-866l600 866h231v-1366h-254v901l-623 -901h-206v901l-621 -901h-297z" />
<glyph unicode="N" horiz-adv-x="1753" d="M125 0v1366h213l600 -897v649h-223v248h477v-1366h-234l-579 870v-870h-254zM1260 0v1366h473v-248h-220v-1118h-253z" />
<glyph unicode="P" horiz-adv-x="1292" d="M125 0v1366h309q166 0 260.5 -23.5t159.5 -80.5q53 -46 80.5 -94.5t40.5 -120.5q135 -52 198.5 -142.5t63.5 -230.5q0 -71 -31 -139.5t-84 -116.5q-37 -32 -71 -49.5t-90 -30.5l237 -338h-278l-248 344l6 -344h-234v487h-65v-487h-254zM379 717h65v348h252 q-25 34 -62 43.5t-142 9.5h-113v-401zM678 502q102 0 143.5 3.5t73.5 16.5q44 17 73.5 54t35.5 83q1 7 1 13q0 50 -34 108q-22 -109 -99 -179t-194 -87v-12zM678 741q61 35 72 107h-72v-107z" />
<glyph unicode="R" horiz-adv-x="1845" d="M125 0v1366h391q240 0 369 -115q63 -57 99.5 -135.5t41.5 -163.5q1 -13 1 -26q1 -91 -37 -177q-42 -99 -118 -161q-86 -69 -208 -80l124 -170l715 1028h217v-1366h-254v369h-381l-161 -234l112 -135h-481l84 123l-260 358v-481h-254zM379 711h110q131 0 187 30 q44 23 70 70t26 104q0 106 -68 155.5t-215 49.5h-110v-409zM1260 623h206v290z" />
<glyph unicode="S" horiz-adv-x="1345" d="M35 397h248q15 -89 55 -130.5t111 -41.5q78 0 121.5 45.5t43.5 128.5q0 70 -59 123q-37 34 -86 56l-41 18l-41 16l-41 19q-133 60 -196.5 148.5t-63.5 213.5q0 101 59.5 193t151.5 135q95 45 276 45v-246q-90 -5 -131 -14q-49 -12 -75.5 -44.5t-26.5 -80.5q0 -84 96 -131 q4 -2 6 -4q2 -1 12 -5q45 -16 128 -48q112 -43 171.5 -103.5t96.5 -169.5v598h-209v248h684v-248h-221v-1118h-254v262q-20 -61 -42 -97t-63 -75q-125 -119 -292 -119q-101 0 -190.5 48t-151.5 135q-38 54 -55 106t-21 137z" />
<glyph unicode="T" horiz-adv-x="1603" d="M20 1118v248h474v-1366h-252v1118h-222zM563 0v1366h490v-248h-236v-325h408v573h254v-1366h-254v545h-408v-545h-254z" />
<glyph unicode="U" horiz-adv-x="1576" d="M125 549v817h252v-856q0 -134 33 -193q22 -41 66 -66.5t95 -25.5q50 0 94 25.5t66 66.5q33 65 33 193v608h-234v248h488v-817q0 -163 -20.5 -250.5t-75.5 -157.5q-60 -78 -155 -124t-196 -46t-196.5 46t-155.5 124q-55 70 -74.5 154.5t-19.5 253.5zM1083 0v1366h473v-248 h-219v-1118h-254z" />
<glyph unicode="V" horiz-adv-x="1277" d="M125 0v1366h254v-889l594 889h303l-932 -1366h-219z" />
<glyph unicode="W" horiz-adv-x="2134" d="M125 0v1366h254v-905l625 905h206v-905l621 905h297l-942 -1366h-228v874l-602 -874h-231z" />
<glyph unicode="_" horiz-adv-x="825" d="M0 -244h827v-49h-827v49z" />
<glyph unicode="a" horiz-adv-x="1288" d="M125 0v1366h223l936 -1366h-291l-243 362h-371v-362h-254zM377 606h209l-209 301v-301z" />
<glyph unicode="c" horiz-adv-x="817" d="M25 512q0 152 72 277.5t198.5 197.5t279.5 72q123 0 234 -66v-288q-105 114 -240 114q-125 0 -212 -89t-87 -218q0 -128 87.5 -217.5t211.5 -89.5q135 0 240 117v-291q-113 -64 -234 -64q-154 0 -280.5 71.5t-198 196.5t-71.5 277z" />
<glyph unicode="e" horiz-adv-x="1052" d="M25 504q0 153 72 280.5t197.5 201t276.5 73.5q152 0 278.5 -74.5t203.5 -208.5l-609 -534q62 -37 127 -37q82 0 161.5 38t137.5 107v-291q-120 -92 -297 -92q-97 0 -196.5 39t-171.5 105q-80 74 -130 183t-50 210zM270 510q0 -36 23 -86l407 356q-37 24 -64.5 31.5 t-70.5 7.5q-125 0 -210 -88.5t-85 -220.5z" />
<glyph unicode="f" horiz-adv-x="1300" d="M125 0v1366h729v-248h-475v-336h65v277h254q162 0 232 -12q150 -28 232.5 -124t82.5 -245q0 -89 -40.5 -169t-108.5 -126q-41 -26 -109 -47l242 -336h-295l-236 326v-326h-254v565h-65v-565h-254zM698 512h66q91 0 114 2.5t50 17.5q78 41 78 146q0 49 -25.5 87t-65.5 52 q-52 17 -151 17h-66v-52h154v-217h-154v-53z" />
<glyph unicode="l" horiz-adv-x="1351" d="M125 1366h254v-917l635 917h213v-1366h-254v371h-367l-102 -146h264v-225h-641zM774 614h199v287z" />
<glyph unicode="m" horiz-adv-x="2134" d="M125 0v1366h231l602 -877v877h228l942 -1366h-297l-621 909v-909h-206l-625 909v-909h-254z" />
<glyph unicode="q" horiz-adv-x="274" />
<glyph unicode="s" horiz-adv-x="1456" d="M35 397h252q8 -46 15.5 -67.5t23.5 -40.5q54 -64 137 -64q79 0 132 61q44 51 44 112q0 13 -2 26q-12 79 -86 123q-87 39 -88 39l-53 18l-27 10q-279 107 -303 363q-2 20 -2 39q0 150 106 258q55 57 129 89t146 32q171 0 286 -115v86h691v-248h-219v-1118h-252v1118h-123 q11 -34 18 -100h-258q-15 67 -47 95t-94 28q-63 0 -101 -48q-29 -36 -29 -81q0 -14 3 -29q6 -31 26 -58t48 -42q35 -21 69 -31l33 -14l31 -11l32 -10q145 -45 227 -149t91 -244q1 -15 1 -30q0 -104 -49 -196q-56 -104 -159.5 -165.5t-228.5 -61.5q-97 0 -195.5 54 t-157.5 139q-36 55 -51.5 108.5t-15.5 124.5z" />
<glyph unicode="t" horiz-adv-x="507" d="M113 0v1366h245v-342h131v-217h-131v-807h-245z" />
<glyph unicode="u" horiz-adv-x="1581" d="M20 1118v248h474v-1366h-252v1118h-222zM563 549v817h488v-248h-234v-608q0 -76 6.5 -118t24.5 -75q22 -41 67 -66.5t95 -25.5t94.5 25.5t66.5 66.5q18 33 24.5 75t6.5 118v856h254v-817q0 -169 -19.5 -253.5t-74.5 -154.5q-62 -78 -156.5 -124t-195.5 -46t-196 46 t-157 124q-54 70 -74 157.5t-20 250.5z" />
<glyph unicode="v" horiz-adv-x="1056" d="M113 0v1024h245v-594l394 594h297l-707 -1024h-229z" />
<glyph unicode="w" horiz-adv-x="1689" d="M113 0v1024h245v-590l402 590h227v-590l395 590h299l-716 -1024h-224v594l-397 -594h-231z" />
<glyph unicode="y" horiz-adv-x="983" d="M-248 -342l285 422v944h246v-610l399 610h299l-938 -1366h-291z" />
<glyph unicode="&#xa2;" horiz-adv-x="1456" d="M63 684q0 138 52.5 266t150.5 226q100 100 237.5 159.5t270.5 59.5q255 0 451 -154q73 -58 116.5 -117.5t81.5 -154.5h-293q-75 86 -152 126t-179 46q-96 5 -185 -29.5t-154 -96t-104 -148.5t-39 -183t39 -183t104 -149.5t154 -97t185 -29.5q95 4 170.5 41t148.5 113h293 q-39 -76 -72 -122.5t-79 -90.5q-95 -92 -223 -143.5t-263 -51.5q-190 0 -354 97t-260.5 261.5t-96.5 354.5zM383 684q0 161 115 275t276 114q162 0 275.5 -113.5t113.5 -275.5q0 -161 -114.5 -275t-274.5 -114q-161 0 -276 114t-115 275zM616 684q0 -64 46.5 -110t111.5 -46 q63 0 109.5 46t46.5 110t-46.5 110t-109.5 46q-65 0 -111.5 -46t-46.5 -110z" />
<glyph unicode="&#xa3;" horiz-adv-x="956" d="M125 1366h254v-1130h563v-236h-815zM444 303v1063h254v-827h242v-236h-496z" />
<glyph unicode="&#xa9;" horiz-adv-x="1556" d="M68 682q0 144 56.5 275.5t151.5 227t226.5 152t275.5 56.5t275.5 -56.5t227 -152t152 -227t56.5 -275.5t-56.5 -275.5t-152 -226.5t-227 -151t-275.5 -56t-275.5 56t-226.5 151t-151.5 226.5t-56.5 275.5zM188 682q0 -161 78.5 -297.5t214.5 -216.5t297 -80t297 80 t214.5 216.5t78.5 297.5t-78.5 298t-214.5 217.5t-297 80.5t-297 -80.5t-214.5 -217.5t-78.5 -298zM362 686q0 175 128.5 298.5t304.5 123.5q135 0 244.5 -68.5t154.5 -191.5h-186q-49 53 -99.5 79.5t-117.5 26.5q-107 0 -185 -81.5t-78 -188.5q0 -109 79 -191.5t188 -82.5 q60 0 107.5 25.5t96.5 74.5h189q-55 -114 -160 -184t-229 -70q-116 0 -217 57.5t-160.5 156.5t-59.5 216z" />
<glyph unicode="&#xab;" horiz-adv-x="2129" d="M4 1366h297l621 -905v905h206l623 -905v905h254v-1366h-231l-600 874v-874h-230z" />
<glyph unicode="&#xae;" horiz-adv-x="1050" d="M98 1141q0 178 125 302t303 124q177 0 301.5 -124.5t124.5 -301.5q0 -178 -124 -303t-302 -125t-303 124.5t-125 303.5zM172 1141q0 -148 103 -251.5t251 -103.5q147 0 250 104t103 251q0 146 -103.5 249t-249.5 103q-147 0 -250.5 -102.5t-103.5 -249.5zM377 915v451 h147q75 0 124.5 -35.5t49.5 -107.5q0 -55 -30.5 -92.5t-83.5 -51.5l127 -164h-121l-115 160v-160h-98zM473 1153h51q76 0 76 64q0 63 -76 63h-51v-127z" />
<glyph unicode="&#xbb;" horiz-adv-x="1681" d="M6 1024h297l391 -584v584h228l401 -586v586h246v-1024h-232l-397 594v-594h-227z" />
<glyph unicode="&#x2000;" horiz-adv-x="783" />
<glyph unicode="&#x2001;" horiz-adv-x="1567" />
<glyph unicode="&#x2002;" horiz-adv-x="783" />
<glyph unicode="&#x2003;" horiz-adv-x="1567" />
<glyph unicode="&#x2004;" horiz-adv-x="522" />
<glyph unicode="&#x2005;" horiz-adv-x="391" />
<glyph unicode="&#x2006;" horiz-adv-x="261" />
<glyph unicode="&#x2007;" horiz-adv-x="261" />
<glyph unicode="&#x2008;" horiz-adv-x="195" />
<glyph unicode="&#x2009;" horiz-adv-x="313" />
<glyph unicode="&#x200a;" horiz-adv-x="87" />
<glyph unicode="&#x2022;" horiz-adv-x="1366" d="M401 696q0 118 82.5 202.5t200.5 84.5q116 0 198.5 -85.5t82.5 -201.5t-82.5 -201t-198.5 -85q-118 0 -200.5 84t-82.5 202z" />
<glyph unicode="&#x202f;" horiz-adv-x="313" />
<glyph unicode="&#x2039;" horiz-adv-x="1292" d="M4 1366h297l612 -887v887h254v-1366h-215z" />
<glyph unicode="&#x203a;" horiz-adv-x="1052" d="M4 1024h299l391 -586v586h246v-1024h-225z" />
<glyph unicode="&#x205f;" horiz-adv-x="391" />
<glyph unicode="&#x25fc;" horiz-adv-x="1024" d="M0 0z" />
</font>
</defs>
</svg>
